<svg xmlns="http://www.w3.org/2000/svg" width="69.387" height="69.387" viewBox="0 0 69.387 69.387">
  <g id="cock-rate" transform="translate(143.319 -10.307)">
    <path id="Контур_1" data-name="Контур 1" d="M20.71,3H11.855A8.868,8.868,0,0,0,3,11.855V20.71" transform="translate(-144.819 8.807)" fill="none" stroke="#323232" stroke-linecap="round" stroke-linejoin="round" stroke-width="3"/>
    <path id="Контур_2" data-name="Контур 2" d="M3,16.5v8.855a8.868,8.868,0,0,0,8.855,8.855H20.71" transform="translate(-144.819 43.984)" fill="none" stroke="#323232" stroke-linecap="round" stroke-linejoin="round" stroke-width="3"/>
    <path id="Контур_3" data-name="Контур 3" d="M16.5,34.21h8.855a8.868,8.868,0,0,0,8.855-8.855V16.5" transform="translate(-109.642 43.984)" fill="none" stroke="#323232" stroke-linecap="round" stroke-linejoin="round" stroke-width="3"/>
    <path id="Контур_4" data-name="Контур 4" d="M34.21,20.71V11.855A8.868,8.868,0,0,0,25.355,3H16.5" transform="translate(-109.642 8.807)" fill="none" stroke="#323232" stroke-linecap="round" stroke-linejoin="round" stroke-width="3"/>
    <g id="penis-8347" transform="translate(-52.801 64.845) rotate(180)">
      <path id="Контур_22" data-name="Контур 22" d="M61.56,15.256a7.666,7.666,0,0,1-.88-.05.885.885,0,1,1,.2-1.759,5.963,5.963,0,0,0,.678.039A5.857,5.857,0,1,0,56.744,4.3a.886.886,0,0,1-1.456,0,5.856,5.856,0,1,0-4.816,9.185,5.964,5.964,0,0,0,.678-.039.885.885,0,0,1,.2,1.759A7.628,7.628,0,1,1,56.016,2.394,7.626,7.626,0,1,1,61.56,15.256Z" transform="translate(0 0)" fill="#323232"/>
      <path id="Контур_23" data-name="Контур 23" d="M101,85.179H91.469a.886.886,0,0,1-.885-.885V66.252a.885.885,0,1,1,1.771,0V83.407h7.76V66.252a.885.885,0,1,1,1.771,0V84.293A.885.885,0,0,1,101,85.179Z" transform="translate(-40.218 -55.068)" fill="#323232"/>
      <path id="Контур_24" data-name="Контур 24" d="M84.578,191.381a7.84,7.84,0,0,1-7.831-7.831v-.37a3.308,3.308,0,0,1,3.3-3.3H89.1a3.308,3.308,0,0,1,3.3,3.3v.37A7.839,7.839,0,0,1,84.578,191.381Zm-4.527-9.734a1.535,1.535,0,0,0-1.533,1.533v.37a6.06,6.06,0,0,0,12.12,0v-.37a1.535,1.535,0,0,0-1.533-1.533H80.05Z" transform="translate(-28.561 -151.537)" fill="#323232"/>
      <path id="Контур_25" data-name="Контур 25" d="M121.715,226.022a.886.886,0,0,1-.885-.885v-3.256a.885.885,0,0,1,1.771,0v3.256A.886.886,0,0,1,121.715,226.022Z" transform="translate(-65.699 -186.177)" fill="#323232"/>
    </g>
  </g>
</svg>
