<svg id="layer1" xmlns="http://www.w3.org/2000/svg" width="15.989" height="10.656" viewBox="0 0 15.989 10.656">
  <g id="g181" transform="translate(0 0)">
    <g id="g10969">
      <path id="path8" d="M-56.194-3.22a5.328,5.328,0,0,0-5.328,5.328,5.328,5.328,0,0,0,5.328,5.328,5.328,5.328,0,0,0,5.328-5.328A5.328,5.328,0,0,0-56.194-3.22Zm0,6.927a1.6,1.6,0,0,1-1.6-1.6,1.6,1.6,0,0,1,1.6-1.6,1.6,1.6,0,0,1,1.6,1.6A1.6,1.6,0,0,1-55.06,3.24,1.6,1.6,0,0,1-56.194,3.707Z" transform="translate(61.522 3.22)" fill="rgba(255,255,255,0.71)"/>
      <path id="path10" d="M-48.952.776A6.665,6.665,0,0,0-46,.776a4.247,4.247,0,0,1-4.055,3.447A5.316,5.316,0,0,1-54.94,7.436l1.6-5.08C-51.7-2.866-50.853-3.22-46.957-3.22h2.676c-.448,1.971-1.99,3.477-4.67,4Z" transform="translate(60.27 3.22)" fill="rgba(255,255,255,0.71)"/>
    </g>
  </g>
</svg>
