<svg id="instagram_2_" data-name="instagram (2)" xmlns="http://www.w3.org/2000/svg" width="16.007" height="16.011" viewBox="0 0 16.007 16.011">
  <path id="Контур_22" data-name="Контур 22" d="M9.951,5.838a4.107,4.107,0,1,0,2.907,1.2,4.108,4.108,0,0,0-2.907-1.2Zm0,6.774A2.668,2.668,0,1,1,12.62,9.944,2.668,2.668,0,0,1,9.951,12.612Z" transform="translate(-1.946 -1.944)" fill="#fff"/>
  <path id="Контур_23" data-name="Контур 23" d="M11.306.051c-1.473-.067-5.121-.067-6.6,0a4.784,4.784,0,0,0-3.36,1.295C-.189,2.886.008,4.96.008,8.006c0,3.114-.173,5.141,1.343,6.657C2.9,16.205,5,16,8.005,16c3.085,0,4.149,0,5.24-.42,1.483-.576,2.6-1.9,2.712-4.282.067-1.474.067-5.121,0-6.6C15.824,1.894,14.317.19,11.3.051Zm2.335,13.59c-1.009,1.009-2.41.919-5.649.919-3.336,0-4.673.049-5.649-.929-1.124-1.119-.921-2.915-.921-5.639,0-3.686-.378-6.338,3.321-6.53.85-.03,1.1-.04,3.239-.04l.03.02c3.555,0,6.344-.372,6.512,3.326.038.844.047,1.1.047,3.233,0,3.3.062,4.642-.93,5.639Z" transform="translate(0 -0.001)" fill="#fff"/>
  <circle id="Эллипс_2" data-name="Эллипс 2" cx="0.96" cy="0.96" r="0.96" transform="translate(11.319 2.772)" fill="#fff"/>
</svg>
