<svg id="fanclub_pink" xmlns="http://www.w3.org/2000/svg" width="16.011" height="16.024" viewBox="0 0 16.011 16.024">
  <rect id="Rectangle_2" data-name="Rectangle 2" width="16.011" height="16.011" transform="translate(0 0.012)" fill="#fff" opacity="0"/>
  <g id="Group_1" data-name="Group 1" transform="translate(0.997 0)">
    <path id="Path_4" data-name="Path 4" d="M-107.651,259.653h0a3.846,3.846,0,0,1,1.016-1.39,2.853,2.853,0,0,1,1.66-.836,1.292,1.292,0,0,1,.831,0,4.312,4.312,0,0,1,2.03.836,3.812,3.812,0,0,1,1.293,1.946,3.285,3.285,0,0,1,.183.927v1.019a5.6,5.6,0,0,1-.554,1.763,17.278,17.278,0,0,1-1.107,1.668,12.811,12.811,0,0,1-1.569,1.576,29.12,29.12,0,0,1-3.414,2.5.091.091,0,0,0-.067.027.091.091,0,0,0-.027.067h-.276a20.12,20.12,0,0,1-2.307-1.576l-1.386-1.111a14.933,14.933,0,0,1-1.2-1.2,12.241,12.241,0,0,1-1.29-1.763,3.718,3.718,0,0,1-.739-1.668,5.39,5.39,0,0,1-.091-1.2,3.349,3.349,0,0,1,.554-1.855,4.179,4.179,0,0,1,2.123-1.855,3.277,3.277,0,0,1,1.014-.184,3.451,3.451,0,0,1,1.662.462,4.969,4.969,0,0,1,1.384,1.39,2.024,2.024,0,0,1,.276.467Zm-1.2,6.117h2.4v-.183c-.183-.742-.37-1.39-.554-2.135a.616.616,0,0,1,.091-.556.892.892,0,0,0,.279-.927,1.111,1.111,0,0,0-1.293-.741h-.093a1.239,1.239,0,0,0-.737,1.3c.091.187.183.467.368.556.093.093.186.187.093.371-.183.556-.276,1.111-.461,1.668,0,.184-.093.462-.093.648Z" transform="translate(114.668 -253.733)" fill="#fff"/>
    <path id="Path_5" data-name="Path 5" d="M-104.817,258.731H-105a3.117,3.117,0,0,0-.923-.093c-.276,0-.462.093-.646.093h-.093a2.023,2.023,0,0,0-.646-.836,1.923,1.923,0,0,0-1.2-.648,1.943,1.943,0,0,0-.737,0,2.084,2.084,0,0,0-1.939,1.39c-.091.093-.091.093-.183.093a3.753,3.753,0,0,0-1.016-.093c-.276,0-.461.093-.737.093h0a3.544,3.544,0,0,1,.737-1.576,3.967,3.967,0,0,1,2.676-1.668,4.182,4.182,0,0,1,4.891,3.245Z" transform="translate(115.987 -255.408)" fill="#fff"/>
  </g>
</svg>
