<svg id="XMLID_826_" xmlns="http://www.w3.org/2000/svg" width="15.984" height="13.086" viewBox="0 0 15.984 13.086">
  <path id="XMLID_827_" d="M15.617,29.607a6.059,6.059,0,0,1-.773.282,3.417,3.417,0,0,0,.7-1.223.258.258,0,0,0-.377-.3,6.083,6.083,0,0,1-1.8.71,3.432,3.432,0,0,0-5.833,2.452,3.5,3.5,0,0,0,.028.443,8.784,8.784,0,0,1-6.027-3.2.258.258,0,0,0-.422.033,3.436,3.436,0,0,0,.352,3.949A2.906,2.906,0,0,1,1,32.55a.258.258,0,0,0-.384.218q0,.023,0,.046A3.443,3.443,0,0,0,2.3,35.765c-.087-.009-.174-.021-.261-.038a.258.258,0,0,0-.294.334,3.43,3.43,0,0,0,2.512,2.3,6.071,6.071,0,0,1-3.245.926,6.205,6.205,0,0,1-.726-.045.258.258,0,0,0-.169.473,9.253,9.253,0,0,0,5,1.468,8.9,8.9,0,0,0,6.9-3.029,9.6,9.6,0,0,0,2.39-6.257c0-.094,0-.189,0-.284a6.671,6.671,0,0,0,1.534-1.626.258.258,0,0,0-.319-.379Z" transform="translate(0.003 -28.097)" fill="#fff"/>
</svg>
